<?xml version="1.0" standalone="no"?>
<!DOCTYPE svg PUBLIC "-//W3C//DTD SVG 20010904//EN"
 "http://www.w3.org/TR/2001/REC-SVG-20010904/DTD/svg10.dtd">
<svg version="1.0" xmlns="http://www.w3.org/2000/svg"
 width="489.000000pt" height="489.000000pt" viewBox="0 0 489.000000 489.000000"
 preserveAspectRatio="xMidYMid meet">
<metadata>
Created by potrace 1.11, written by Peter Selinger 2001-2013
</metadata>
<g transform="translate(0.000000,489.000000) scale(0.100000,-0.100000)"
fill="#000000" stroke="none">
<path d="M2412 4480 l-93 -140 -155 0 c-85 0 -154 -4 -154 -8 0 -5 36 -87 79
-182 l79 -174 -20 -50 c-25 -66 -24 -63 -59 -71 -17 -4 -69 -22 -117 -41 -77
-30 -91 -33 -121 -23 -41 14 -155 6 -176 -11 -8 -7 -15 -9 -15 -5 0 11 -71
-45 -95 -74 -33 -41 -64 -100 -70 -134 -8 -41 -18 -58 -36 -61 -8 -1 -24 -8
-36 -14 -13 -7 -23 -11 -23 -8 0 2 -37 -10 -82 -28 -46 -18 -86 -33 -91 -34
-4 -1 -31 -9 -61 -17 -30 -9 -70 -17 -90 -19 l-35 -4 6 44 c5 38 2 46 -25 73
-30 31 -59 34 -103 10 -33 -17 -71 -77 -75 -119 -3 -32 -15 -54 -49 -93 -24
-28 -51 -70 -59 -93 -13 -40 -15 -128 -3 -141 4 -3 39 -7 79 -8 116 -5 267
-30 293 -49 14 -10 13 -18 -10 -74 -14 -34 -27 -70 -29 -79 -1 -10 -6 -25 -9
-33 -3 -8 -11 -42 -18 -75 -7 -33 -14 -67 -16 -75 -27 -122 -22 -416 8 -550 6
-25 12 -52 14 -60 2 -8 9 -37 16 -63 12 -41 11 -49 -1 -57 -22 -14 -28 -12
-35 13 -11 33 -64 85 -102 98 -44 14 -128 4 -169 -21 -67 -42 -67 -141 1 -211
18 -18 80 -65 136 -104 125 -84 212 -170 259 -254 70 -124 72 -126 118 -125
30 0 54 10 85 31 l42 31 77 -72 c82 -77 206 -170 276 -207 23 -13 42 -27 42
-31 0 -5 -4 -7 -8 -4 -5 3 -22 -4 -40 -14 -126 -77 -63 -259 91 -260 30 0 37
-4 37 -19 0 -29 42 -73 81 -86 24 -8 40 -22 53 -49 10 -20 32 -47 48 -59 30
-22 33 -24 68 -26 13 -1 20 -8 20 -20 0 -20 65 -81 86 -81 7 0 22 -15 34 -34
26 -43 116 -126 156 -145 16 -7 37 -17 47 -22 20 -11 83 3 132 29 38 19 99 83
126 132 15 26 31 40 50 44 31 6 89 58 89 80 0 8 14 16 33 20 42 8 83 44 102
90 8 20 22 36 31 36 35 0 76 32 94 75 15 36 22 43 40 38 40 -11 110 26 140 73
23 37 26 50 20 84 -10 56 -55 109 -92 110 -10 0 -18 5 -18 10 0 6 4 10 9 10
23 0 224 145 301 218 l85 80 40 -29 c42 -29 88 -43 117 -33 10 3 31 32 48 66
72 141 137 209 320 333 47 32 95 69 108 82 105 112 41 248 -113 239 -66 -4
-119 -37 -142 -87 -20 -44 -48 -49 -48 -9 -1 14 7 50 16 80 32 105 46 235 44
398 -2 86 -6 175 -9 197 -13 77 -57 241 -82 304 -29 73 -28 75 51 91 92 18
120 21 209 25 105 5 111 10 103 95 -5 62 -33 116 -86 166 -21 20 -31 39 -31
59 0 37 -30 104 -56 126 -44 38 -95 40 -132 6 -20 -19 -23 -29 -19 -70 l4 -48
-41 6 c-37 6 -84 18 -126 33 -8 3 -33 11 -55 18 -50 15 -123 42 -150 54 -11 5
-29 11 -41 15 -14 3 -25 20 -34 48 -29 98 -81 168 -158 213 -47 28 -90 33
-232 24 -35 -3 -222 57 -238 75 -5 6 -16 31 -26 57 l-17 46 86 171 c47 94 85
175 85 181 0 6 -57 10 -153 10 l-154 0 -63 103 c-95 156 -110 177 -118 177 -4
0 -49 -63 -100 -140z m79 -155 c0 -103 -1 -188 -3 -189 -55 -36 -41 -40 -217
65 l-165 99 103 0 c96 0 103 -2 127 -25 36 -36 63 -13 29 25 -13 14 -7 27 53
117 37 56 68 100 70 98 2 -1 3 -87 3 -190z m112 88 l56 -91 -19 -24 c-11 -14
-15 -29 -11 -37 12 -18 20 -16 42 13 20 25 24 26 132 26 l112 0 -167 -100
c-162 -98 -168 -100 -192 -85 -24 16 -24 16 -24 211 0 108 4 192 8 187 4 -4
32 -49 63 -100z m-333 -256 c136 -82 155 -97 158 -121 2 -16 -1 -32 -6 -35 -5
-3 -60 -53 -123 -111 -62 -58 -120 -112 -129 -120 -64 -59 -63 -60 -34 16 65
174 67 177 102 186 47 12 44 41 -4 35 -29 -4 -37 -1 -43 17 -5 11 -28 62 -51
111 -61 129 -64 138 -42 125 9 -5 87 -52 172 -103z m588 -29 c-57 -111 -65
-123 -88 -120 -13 1 -31 0 -38 -3 -21 -8 2 -31 36 -38 23 -5 30 -15 47 -64 10
-32 29 -84 42 -116 12 -32 18 -57 13 -55 -4 2 -72 66 -151 142 -130 128 -141
141 -133 164 6 18 54 53 169 122 88 53 161 96 163 94 2 -1 -25 -58 -60 -126z
m-164 -282 c74 -72 134 -131 132 -134 -4 -3 -139 47 -221 83 -16 7 -47 20 -68
29 -30 12 -38 21 -37 38 4 39 1 48 -15 48 -16 0 -16 -1 -19 -44 -1 -26 -8 -32
-81 -64 -44 -19 -109 -48 -144 -64 -35 -15 -66 -27 -67 -25 -3 3 64 67 230
220 46 42 53 45 102 43 l52 -1 136 -129z m-603 -64 c-5 -10 -31 -27 -56 -37
-40 -15 -51 -15 -71 -4 -13 7 -24 15 -24 18 0 10 155 59 158 50 2 -4 -1 -16
-7 -27z m892 9 c37 -13 67 -24 67 -26 0 -1 -11 -10 -24 -18 -22 -15 -28 -14
-72 2 -42 16 -61 35 -63 65 -1 4 5 6 12 4 6 -3 42 -15 80 -27z m-283 -76 c118
-47 216 -88 219 -90 2 -3 -1 -15 -8 -28 -17 -33 -34 -122 -32 -172 2 -52 19
-124 34 -142 11 -15 4 -17 -21 -4 -100 52 -254 83 -403 82 -73 0 -87 -1 -179
-17 -25 -4 -47 -8 -50 -9 -15 -2 -167 -59 -176 -66 -6 -5 -2 17 9 49 24 73 20
185 -10 254 l-21 46 106 47 c205 90 302 132 313 134 3 0 101 -37 219 -84z
m-787 7 c38 -21 63 -45 93 -90 105 -158 75 -372 -60 -433 -86 -39 -166 -12
-166 56 0 43 14 81 34 88 12 5 14 -1 10 -31 -16 -144 157 -115 210 36 20 56
12 128 -21 202 -51 111 -133 174 -223 172 -97 -1 -159 -50 -220 -173 -22 -43
-48 -82 -57 -87 -35 -19 -320 -110 -388 -125 -67 -15 -119 -20 -176 -18 -61 2
-85 61 -47 117 43 63 108 63 108 0 0 -29 -31 -66 -56 -66 -9 0 -14 -7 -12 -17
8 -41 191 -8 418 77 47 17 99 36 116 42 25 8 34 19 44 52 63 214 221 294 393
198z m1392 29 c74 -33 135 -113 160 -211 l11 -45 130 -48 c240 -90 434 -127
442 -84 2 11 -3 17 -17 17 -24 0 -51 35 -51 67 0 29 25 52 49 46 29 -7 68 -54
76 -90 8 -39 -20 -72 -62 -74 -50 -2 -100 0 -127 6 -14 3 -38 7 -52 10 -37 8
-174 49 -264 80 -142 48 -142 48 -184 134 -59 124 -118 169 -222 172 -83 2
-166 -62 -216 -167 -57 -122 -36 -252 51 -309 54 -36 88 -39 115 -10 18 20 22
34 20 70 -4 50 6 52 35 4 23 -38 16 -84 -18 -110 -21 -17 -36 -20 -79 -17 -67
6 -117 44 -155 118 -25 50 -27 63 -24 140 7 158 87 272 217 310 45 13 124 9
165 -9z m-335 -50 c0 -3 -4 -12 -9 -20 -11 -16 -27 -8 -33 17 -4 15 -1 18 18
14 13 -2 24 -7 24 -11z m-915 -21 c-5 -17 -10 -19 -21 -9 -19 15 -18 27 4 31
23 6 25 3 17 -22z m1210 -3 c52 -25 90 -69 120 -140 l15 -37 -57 44 c-32 25
-93 65 -135 89 -72 41 -76 45 -55 55 34 16 57 14 112 -11z m-1425 -4 c11 -3 6
-9 -15 -20 -49 -25 -199 -127 -212 -143 -6 -8 -14 -13 -17 -10 -8 8 43 102 72
133 41 43 113 60 172 40z m1347 -73 c48 -28 112 -70 142 -93 54 -41 210 -191
241 -232 153 -203 244 -405 284 -630 34 -188 22 -424 -29 -602 l-15 -52 -49
24 c-92 47 -193 129 -290 237 -22 26 -24 34 -23 151 2 269 -88 492 -275 680
-64 64 -66 67 -39 67 98 0 150 116 91 203 -14 20 -29 37 -33 38 -4 0 -15 2
-25 4 -30 6 -47 -22 -43 -70 6 -56 -11 -73 -51 -52 -77 40 -103 117 -79 227
12 51 76 150 97 150 5 0 47 -23 96 -50z m-1243 -7 c33 -45 50 -89 61 -158 11
-67 -36 -153 -94 -173 -40 -14 -55 4 -47 55 7 44 -9 71 -41 68 -86 -6 -117
-169 -41 -219 22 -14 53 -23 86 -25 8 -1 -19 -37 -60 -80 -93 -101 -162 -215
-204 -338 -42 -126 -45 -143 -49 -298 -2 -71 -4 -133 -4 -137 -2 -17 -171
-179 -226 -215 -57 -38 -119 -73 -129 -73 -4 0 -18 51 -17 65 0 2 -5 19 -10
37 -11 38 -16 63 -29 150 -9 65 -6 299 4 353 4 17 14 66 22 110 19 92 58 203
107 302 39 79 105 186 118 191 5 2 9 8 9 14 0 14 81 109 154 180 88 86 305
235 343 237 7 1 28 -20 47 -46z m1622 -199 c55 -23 186 -211 264 -378 32 -70
85 -225 94 -281 3 -16 8 -41 11 -55 28 -131 28 -393 0 -544 -4 -17 -7 -38 -9
-46 -8 -43 -39 -130 -46 -130 -35 0 -37 10 -14 90 13 43 26 104 31 137 10 70
10 358 1 428 -36 272 -183 574 -373 769 -41 41 -36 42 41 10z m-2091 -11 c-87
-87 -199 -252 -258 -383 -34 -74 -82 -212 -91 -260 -3 -14 -7 -36 -10 -50 -28
-127 -29 -357 -1 -550 4 -31 34 -140 40 -151 5 -8 -34 -34 -40 -27 -9 11 -37
117 -51 198 -24 133 -23 471 1 510 2 3 6 26 10 50 8 58 49 186 87 275 72 166
208 363 273 394 57 28 73 26 40 -6z m2308 -57 c171 -46 266 -52 314 -20 l27
17 39 -44 c45 -51 67 -98 67 -145 0 -30 -3 -34 -27 -35 -86 -3 -200 -16 -214
-25 -5 -3 -23 -7 -41 -9 -18 -3 -45 -7 -59 -11 -23 -5 -29 0 -54 43 -15 26
-28 62 -29 78 -1 21 -6 29 -16 28 -20 -4 -56 53 -38 59 7 3 9 12 5 23 -7 18
-8 18 -21 0 -13 -18 -14 -18 -20 2 -4 11 -15 28 -26 38 -19 17 -28 41 -12 32
4 -3 51 -17 105 -31z m-2483 -18 c-18 -24 -42 -58 -53 -76 -15 -21 -28 -31
-39 -28 -13 3 -18 -2 -18 -15 0 -10 4 -19 10 -19 5 0 -4 -23 -20 -50 -17 -28
-30 -56 -30 -62 0 -10 -9 -9 -90 7 -84 16 -143 25 -205 31 -93 7 -95 8 -89 41
10 57 25 89 62 132 l38 44 28 -18 c39 -26 189 -15 316 24 52 16 101 29 108 30
8 1 0 -17 -18 -41z m1340 8 c70 -10 223 -61 280 -93 136 -77 226 -153 304
-257 71 -94 104 -162 88 -178 -9 -9 -15 -3 -27 26 -60 142 -223 305 -390 388
-250 125 -551 123 -800 -5 -162 -84 -310 -232 -380 -380 -13 -28 -21 -35 -29
-27 -14 14 31 102 93 179 90 115 189 194 326 264 58 29 141 59 165 59 3 0 15
4 28 9 13 5 47 12 75 15 29 4 53 7 55 9 4 4 172 -4 212 -9z m-215 -66 c-3 -5
-14 -10 -24 -10 -30 0 -119 -50 -171 -97 -49 -44 -53 -45 -113 -45 -120 0
-116 -1 -66 30 87 54 218 103 327 122 26 4 48 8 50 9 2 0 0 -3 -3 -9z m205 -4
c74 -8 179 -45 272 -94 49 -25 86 -47 84 -49 -3 -4 -128 -6 -166 -4 -9 1 -37
21 -62 45 -46 43 -141 96 -172 96 -9 0 -16 5 -16 11 0 5 4 8 8 5 4 -2 28 -7
52 -10z m9 -70 c28 -15 73 -48 99 -74 47 -46 48 -47 110 -47 34 1 62 0 62 -2
0 -1 -18 -12 -40 -23 -21 -11 -50 -32 -64 -47 -22 -24 -26 -25 -32 -10 -8 22
-68 53 -123 66 -46 10 -51 3 -20 -25 l21 -19 -39 -17 -38 -17 37 0 c37 -1 63
-21 39 -29 -8 -3 -28 -17 -45 -33 l-31 -28 27 -1 c15 0 30 5 33 10 4 6 10 8
15 5 6 -3 3 -23 -6 -45 -9 -21 -14 -47 -12 -57 3 -15 7 -13 30 11 l26 29 12
-41 c12 -47 22 -52 38 -19 l11 22 0 -22 c1 -31 18 -37 32 -11 l12 22 8 -22 c5
-12 6 -28 4 -35 -2 -6 -6 -28 -9 -47 -3 -19 -19 -80 -35 -135 -36 -120 -40
-144 -42 -212 -1 -29 -4 -53 -8 -53 -3 0 -16 -3 -28 -6 -15 -4 -23 -2 -23 6 0
6 10 20 23 31 17 14 19 18 6 19 -9 0 -22 -7 -29 -15 -14 -17 -20 -18 -40 -5
-12 7 -12 12 5 29 10 12 16 24 12 27 -3 3 -14 -4 -24 -15 -24 -28 -48 -29 -33
0 6 11 9 25 7 32 -3 7 -10 -1 -16 -16 -12 -30 -36 -27 -26 3 3 10 1 21 -5 25
-6 4 -10 -4 -10 -19 0 -14 -4 -27 -8 -30 -15 -9 -32 10 -27 32 5 27 -4 54 -15
47 -4 -2 -6 -20 -3 -40 3 -30 1 -35 -17 -35 -16 0 -20 4 -15 19 3 11 1 22 -5
26 -6 4 -10 -6 -10 -24 0 -38 -13 -40 -29 -5 -15 34 -25 25 -12 -10 13 -33
-10 -37 -33 -4 -21 30 -32 16 -11 -15 15 -23 14 -25 -1 -31 -10 -4 -25 1 -36
10 -10 10 -21 14 -25 11 -3 -4 4 -16 16 -26 l22 -19 -21 -7 c-31 -10 -38 2
-44 76 -4 36 -22 122 -41 190 -20 68 -38 151 -41 184 l-5 60 20 -23 c18 -21
49 -23 36 -2 -3 5 -1 11 4 14 5 3 11 -1 15 -9 10 -28 26 -15 32 26 l7 40 27
-26 c26 -24 29 -25 32 -8 2 10 -4 37 -13 60 l-18 42 25 -9 c14 -6 32 -10 40
-10 22 0 2 32 -30 50 -35 18 -28 34 20 41 l39 5 -43 12 -42 13 20 21 c11 12
20 25 20 29 0 16 -105 -22 -140 -49 -34 -28 -37 -29 -48 -12 -6 11 -32 31 -57
45 -25 15 -45 28 -45 30 0 2 30 2 66 1 66 -3 66 -3 105 39 41 44 121 93 173
106 59 15 169 3 225 -25z m-564 -163 c19 -21 35 -41 35 -45 0 -3 -22 -5 -50
-3 -56 4 -64 -5 -23 -24 l27 -13 -24 -19 c-14 -10 -28 -19 -32 -19 -5 0 -8 -4
-8 -10 0 -5 14 -10 30 -10 34 0 36 -7 15 -57 -20 -48 -19 -60 4 -39 27 24 39
14 34 -29 -3 -34 -2 -35 22 -29 23 6 25 4 25 -27 0 -19 7 -70 16 -114 8 -44
17 -100 20 -125 3 -25 7 -54 9 -65 1 -11 0 -29 -4 -39 -7 -19 -8 -19 -23 3
-13 19 -16 20 -22 6 -3 -9 -6 -26 -6 -36 0 -17 -5 -19 -30 -15 -33 5 -39 -4
-15 -24 22 -18 19 -26 -17 -49 -28 -17 -30 -21 -12 -21 30 0 35 -9 17 -36 -20
-32 -13 -93 17 -134 22 -31 23 -31 89 -24 47 5 74 13 93 29 42 35 93 49 152
40 56 -8 73 -8 157 1 45 5 64 2 97 -15 22 -11 42 -25 44 -31 3 -9 67 -20 137
-24 15 -1 31 9 44 26 23 30 35 122 18 132 -19 12 -12 34 12 38 20 3 19 5 -11
21 l-33 18 22 30 22 31 -37 -6 c-34 -6 -36 -4 -37 22 -1 15 0 32 1 37 1 6 -11
-1 -26 -15 l-27 -25 6 75 c3 41 9 86 12 100 3 14 13 68 22 121 14 87 18 96 37
95 18 -1 21 4 18 37 -4 42 -1 44 33 21 30 -20 31 -15 5 38 -11 23 -20 45 -20
49 0 4 17 9 38 11 l37 3 -38 24 -39 24 26 16 c38 23 32 30 -24 27 -27 -2 -50
0 -50 3 0 3 18 24 41 46 39 39 94 55 101 30 3 -8 2 -959 -1 -991 -1 -6 -29
-34 -63 -62 -35 -28 -75 -61 -89 -74 -14 -13 -52 -45 -84 -73 -32 -27 -63 -55
-69 -60 -6 -6 -42 -37 -81 -70 -38 -33 -81 -70 -95 -83 -14 -12 -28 -21 -32
-20 -5 2 -154 132 -312 271 -12 10 -49 44 -84 74 -35 31 -73 64 -85 73 l-22
18 1 503 c1 277 2 505 3 507 0 1 12 0 26 -2 14 -3 41 -22 60 -43z m1100 -96
c24 -32 58 -87 75 -121 29 -59 31 -66 17 -88 -33 -50 -46 -152 -33 -245 8 -51
56 -164 96 -223 77 -113 219 -238 360 -317 64 -36 174 -83 208 -89 13 -3 53
-11 88 -20 35 -8 67 -14 71 -13 4 1 31 1 58 0 l50 -1 -29 -15 c-44 -23 -156
-105 -205 -150 -51 -47 -118 -138 -155 -212 -17 -35 -33 -53 -45 -53 -10 0
-43 18 -73 39 -31 21 -66 42 -79 46 -13 4 -37 21 -53 37 -35 34 -97 65 -141
71 -23 3 -38 16 -67 58 -54 79 -123 146 -182 176 -73 38 -167 41 -239 8 -67
-31 -142 -109 -156 -162 -12 -43 -8 -40 -101 -59 -8 -2 -40 -6 -70 -9 l-55 -5
36 33 c20 17 63 55 95 82 32 28 97 84 144 125 125 109 162 140 213 183 l45 37
0 488 c1 268 1 498 1 512 1 23 2 23 42 -15 22 -22 60 -66 84 -98z m-1234 -384
l0 -500 132 -116 c73 -63 143 -125 156 -137 36 -31 148 -130 195 -172 l41 -38
-45 6 c-25 2 -52 6 -60 8 -8 1 -32 6 -53 11 -22 4 -41 15 -44 24 -17 55 -41
95 -77 128 -135 125 -303 110 -440 -38 -31 -33 -66 -78 -79 -100 -17 -30 -30
-40 -57 -46 -19 -3 -36 -5 -38 -4 -6 4 -68 -33 -91 -56 -14 -13 -39 -31 -56
-40 -16 -8 -52 -30 -80 -49 -67 -45 -94 -47 -114 -9 -33 63 -121 191 -148 215
-61 55 -131 108 -188 143 l-59 37 47 0 c26 0 83 7 125 16 42 9 84 17 92 19 32
6 158 61 214 92 340 192 514 492 430 741 l-24 73 21 42 c34 68 98 158 147 209
25 26 47 46 49 44 2 -2 4 -228 4 -503z m1409 204 c0 -13 -7 -38 -16 -56 -20
-39 -27 -176 -14 -239 17 -76 85 -179 184 -278 113 -114 245 -200 391 -255 73
-27 60 -23 113 -33 76 -14 93 -14 99 1 8 20 0 24 -49 29 -56 6 -61 13 -38 52
26 42 71 61 135 57 40 -3 55 -9 77 -34 29 -32 30 -56 3 -97 -24 -37 -44 -42
-145 -39 -187 6 -381 87 -551 229 -127 106 -238 261 -256 355 -2 14 -6 28 -9
32 -6 10 -6 105 0 139 10 55 17 77 38 117 26 48 38 54 38 20z m-1663 -29 c32
-66 41 -109 38 -190 -8 -210 -201 -443 -484 -583 -121 -61 -216 -86 -331 -90
-103 -3 -143 10 -157 50 -25 74 23 125 113 120 50 -3 86 -23 111 -61 14 -22
14 -27 2 -35 -8 -5 -26 -9 -41 -10 -50 -3 -53 -4 -53 -24 0 -16 6 -20 35 -19
115 4 307 83 446 184 135 98 277 270 304 370 26 92 18 218 -18 287 -10 19 -6
43 7 43 4 0 17 -19 28 -42z m1721 -278 c-3 -85 -3 -85 -19 -55 -9 17 -17 57
-18 89 -1 33 -6 78 -11 102 -7 29 -6 52 2 76 l12 33 18 -80 c12 -53 18 -109
16 -165z m-1774 134 c-7 -47 -12 -107 -13 -145 -1 -14 -8 -34 -17 -45 -14 -17
-15 -11 -10 81 3 55 7 111 10 125 3 14 9 39 12 55 l7 30 9 -30 c4 -16 5 -49 2
-71z m646 -318 c0 -3 -4 -8 -10 -11 -5 -3 -10 -1 -10 4 0 6 5 11 10 11 6 0 10
-2 10 -4z m440 0 c0 -11 -19 -15 -25 -6 -3 5 1 10 9 10 9 0 16 -2 16 -4z
m-632 -480 c45 -23 100 -74 118 -108 9 -17 14 -31 12 -33 -12 -13 -201 93
-258 145 l-25 22 60 -4 c34 -3 75 -13 93 -22z m962 18 c0 -24 -182 -136 -258
-159 -23 -7 -23 -6 -8 23 42 81 135 141 219 142 26 0 47 -3 47 -6z m-1136 -33
c29 -32 151 -110 221 -142 117 -53 207 -72 345 -73 145 -1 197 6 300 40 94 32
187 82 269 146 38 31 67 46 72 41 6 -6 -3 -19 -22 -34 -17 -13 -43 -34 -57
-46 -80 -69 -288 -155 -410 -170 -65 -8 -206 -7 -273 1 -112 14 -325 104 -387
163 -7 7 -16 13 -20 13 -13 1 -81 67 -75 74 10 10 19 7 37 -13z m-43 -51 c161
-144 387 -232 604 -234 107 -1 205 7 223 18 5 3 23 8 40 11 113 19 282 108
392 204 19 17 38 31 41 31 12 0 86 -87 122 -142 36 -56 40 -59 120 -74 30 -5
77 -32 77 -43 0 -12 -100 -100 -175 -156 -242 -179 -505 -266 -808 -268 -363
-2 -703 135 -967 391 l-35 33 25 19 c13 10 41 21 62 24 59 10 84 25 107 67 23
41 118 149 131 149 4 0 23 -14 41 -30z m-375 -274 c8 -21 167 -152 245 -202
116 -74 321 -162 419 -181 14 -2 45 -9 70 -14 144 -32 379 -32 549 1 63 12
183 46 226 65 207 89 349 179 473 300 30 29 50 41 63 38 29 -8 24 -19 -33 -75
-148 -143 -337 -256 -544 -327 -82 -28 -118 -37 -229 -57 -105 -19 -319 -24
-414 -10 -332 50 -588 172 -825 393 -56 52 -58 57 -41 69 24 18 34 18 41 0z
m339 -388 c35 -16 37 -54 4 -100 -18 -26 -19 -28 0 -37 14 -8 31 -3 75 19 31
16 69 39 85 51 20 15 35 19 52 14 23 -8 22 -8 -16 -41 -22 -19 -46 -34 -52
-34 -7 0 -13 -3 -13 -7 0 -12 -83 -43 -126 -48 -22 -2 -53 3 -70 11 -75 36
-75 144 1 175 27 11 30 11 60 -3z m1423 -23 c20 -24 27 -49 22 -85 -1 -8 -15
-28 -31 -45 -26 -26 -36 -30 -87 -29 -45 0 -69 6 -116 32 -63 35 -115 73 -115
84 -1 4 8 10 19 13 14 4 37 -4 73 -27 121 -78 166 -82 125 -10 -22 40 -23 60
-2 83 24 26 82 17 112 -16z m-1317 9 l31 -15 -33 -25 c-18 -13 -34 -24 -35
-24 -1 0 -1 18 0 40 0 22 2 40 4 40 2 0 17 -7 33 -16z m1153 -29 c1 -19 -1
-34 -4 -32 -3 1 -17 9 -32 16 -16 8 -28 18 -28 22 0 9 52 37 59 32 2 -1 4 -18
5 -38z m-921 -44 l27 -6 -34 -50 c-49 -73 -151 -165 -177 -160 -46 9 -60 18
-75 46 -15 31 -12 49 10 49 16 0 128 72 164 105 27 26 37 27 85 16z m753 -31
c27 -23 75 -53 106 -68 64 -30 74 -54 36 -89 -41 -37 -73 -37 -115 -1 -65 57
-151 157 -115 134 13 -8 25 10 16 25 -4 8 -9 8 -17 0 -7 -7 -14 -7 -24 0 -26
22 -17 28 53 38 7 0 34 -17 60 -39z m-594 1 c13 -11 15 -55 5 -81 -33 -77
-168 -230 -203 -230 -39 0 -72 21 -90 58 -15 33 -15 36 0 44 31 17 121 112
156 163 18 28 38 53 43 57 11 7 78 -1 89 -11z m460 -43 c22 -32 68 -84 104
-116 35 -33 64 -67 64 -76 0 -10 -13 -31 -29 -47 -46 -45 -79 -40 -142 24 -64
65 -139 178 -138 209 0 21 17 71 18 57 1 -4 16 -3 34 1 47 10 47 10 89 -52z
m-172 37 c0 -12 -79 -54 -108 -59 -50 -7 -132 27 -132 55 0 4 54 8 120 8 66 0
120 -2 120 -4z m-190 -139 c0 -39 -5 -57 -23 -76 -12 -14 -48 -56 -78 -95 -77
-96 -81 -100 -116 -83 -47 22 -42 52 18 111 28 29 76 86 105 129 43 60 58 75
74 71 17 -4 20 -14 20 -57z m220 0 c17 -30 62 -88 100 -129 39 -41 70 -78 70
-83 0 -15 -44 -54 -61 -54 -9 0 -50 41 -92 93 -41 51 -81 99 -89 107 -11 12
-19 102 -9 118 0 1 12 2 25 2 19 0 31 -12 56 -54z m-125 -11 c1 -32 -1 -35
-27 -35 -25 0 -28 3 -28 34 0 28 4 35 23 38 29 5 30 4 32 -37z m6 -64 c3 -1
45 -49 93 -107 l87 -105 -31 -49 c-41 -63 -86 -103 -143 -125 -45 -17 -46 -17
-92 6 -50 25 -120 87 -149 131 l-18 28 58 72 c118 148 133 159 195 149z"/>
<path d="M2507 3753 c-10 -16 11 -39 23 -27 8 8 7 14 -4 23 -8 7 -17 8 -19 4z"/>
<path d="M2380 3635 c0 -8 6 -15 13 -15 8 0 14 7 14 15 0 8 -6 15 -14 15 -7 0
-13 -7 -13 -15z"/>
<path d="M2596 3631 c-3 -5 1 -14 9 -21 13 -10 15 -9 15 9 0 21 -14 28 -24 12z"/>
<path d="M2476 3613 c-9 -9 -7 -33 3 -33 12 0 22 28 12 34 -5 3 -11 3 -15 -1z"/>
<path d="M2247 3604 c-4 -4 -7 -17 -7 -28 0 -19 1 -19 17 -3 12 11 14 20 7 27
-6 6 -13 7 -17 4z"/>
<path d="M2114 3574 c3 -9 6 -18 6 -20 0 -3 5 -2 10 1 16 10 12 35 -6 35 -11
0 -14 -5 -10 -16z"/>
<path d="M2666 3582 c-2 -4 -1 -14 4 -21 10 -17 31 -5 23 14 -6 16 -19 20 -27
7z"/>
<path d="M2853 3575 c0 -8 6 -15 14 -15 7 0 13 7 13 15 0 8 -6 15 -13 15 -8 0
-14 -7 -14 -15z"/>
<path d="M2675 3450 c-8 -13 4 -32 16 -25 12 8 12 35 0 35 -6 0 -13 -4 -16
-10z"/>
<path d="M2805 3440 c-4 -6 -3 -16 3 -22 6 -6 12 -6 17 2 4 6 3 16 -3 22 -6 6
-12 6 -17 -2z"/>
<path d="M2395 3430 c-11 -17 5 -32 21 -19 8 6 14 15 14 20 0 12 -27 11 -35
-1z"/>
<path d="M2530 3431 c0 -5 7 -11 15 -15 9 -3 15 0 15 9 0 8 -7 15 -15 15 -8 0
-15 -4 -15 -9z"/>
<path d="M2280 3410 c0 -11 5 -20 10 -20 6 0 10 9 10 20 0 11 -4 20 -10 20 -5
0 -10 -9 -10 -20z"/>
<path d="M2167 3384 c-8 -8 3 -34 14 -34 11 0 12 27 0 34 -4 3 -11 3 -14 0z"/>
<path d="M3357 3213 c-12 -12 -13 -22 -5 -45 6 -16 8 -32 4 -35 -3 -3 -8 2
-11 11 -3 9 -7 23 -10 32 -7 22 -25 7 -25 -21 0 -31 36 -58 62 -44 10 5 18 18
18 28 0 11 7 18 16 17 20 -1 26 24 10 45 -17 24 -42 29 -59 12z m38 -33 c3 -5
1 -10 -4 -10 -6 0 -11 5 -11 10 0 6 2 10 4 10 3 0 8 -4 11 -10z"/>
<path d="M3402 3114 c-24 -17 -30 -62 -10 -82 15 -15 58 -16 58 -1 0 6 -9 13
-20 16 -24 6 -26 26 -5 43 20 17 45 5 45 -21 0 -25 23 -21 28 5 5 23 -26 56
-52 56 -12 0 -32 -7 -44 -16z"/>
<path d="M3473 3022 c-43 -27 -56 -52 -29 -52 8 0 18 5 21 10 5 8 12 7 22 -1
13 -11 12 -15 -8 -29 -12 -10 -19 -22 -15 -28 5 -8 22 -4 56 14 57 30 69 60
20 49 -23 -5 -30 -3 -30 9 0 8 7 19 16 24 9 5 14 14 10 21 -10 15 -14 14 -63
-17z"/>
<path d="M3516 2917 c-28 -21 -27 -64 2 -88 58 -45 125 30 79 89 -12 16 -58
16 -81 -1z m68 -26 c18 -29 -28 -61 -52 -37 -13 12 -13 18 -2 30 14 18 46 21
54 7z"/>
<path d="M3556 2794 c-22 -21 -20 -60 3 -83 16 -16 26 -18 52 -11 37 11 49 25
49 57 0 30 -26 53 -60 53 -16 0 -36 -7 -44 -16z m69 -39 c0 -21 -25 -31 -51
-21 -23 9 0 44 28 42 16 -1 23 -7 23 -21z"/>
<path d="M3625 2685 c-5 -2 -22 -6 -37 -9 -25 -6 -27 -9 -21 -39 3 -17 10 -38
16 -44 7 -9 5 -13 -8 -13 -9 0 -15 -6 -12 -12 2 -7 12 -13 23 -13 20 0 26 30
13 70 -6 17 0 22 34 30 45 12 63 35 25 34 -12 0 -27 -2 -33 -4z"/>
<path d="M3603 2503 c-7 -2 -13 -18 -13 -34 0 -32 23 -43 80 -37 58 5 49 28
-11 28 -41 0 -50 3 -41 12 24 24 14 43 -15 31z"/>
<path d="M3601 2412 c-19 -6 -12 -32 8 -32 12 0 21 -8 23 -21 8 -58 73 -47 73
12 0 33 -1 34 -46 39 -26 3 -52 4 -58 2z m79 -53 c0 -5 -4 -9 -10 -9 -5 0 -10
7 -10 16 0 8 5 12 10 9 6 -3 10 -10 10 -16z"/>
<path d="M3580 2295 c0 -8 9 -15 20 -15 27 0 25 -10 -7 -36 -33 -26 -24 -42
12 -26 14 6 25 8 25 3 0 -5 9 -11 20 -14 25 -6 50 26 50 64 0 23 -5 27 -37 33
-61 10 -83 7 -83 -9z m90 -40 c0 -8 -4 -15 -10 -15 -5 0 -10 7 -10 15 0 8 5
15 10 15 6 0 10 -7 10 -15z"/>
<path d="M1620 3223 c-15 -19 -17 -30 -9 -44 12 -23 42 -25 59 -4 16 19 31 20
24 1 -3 -8 -14 -16 -25 -19 -27 -7 -24 -27 4 -27 24 0 56 26 55 45 0 25 -21
47 -40 42 -13 -4 -18 -1 -14 8 9 26 -33 24 -54 -2z m40 -13 c0 -5 -8 -10 -17
-10 -15 0 -16 2 -3 10 19 12 20 12 20 0z"/>
<path d="M1545 3129 c-14 -18 -22 -35 -18 -38 26 -22 83 -61 87 -61 7 0 46 61
46 71 0 15 -37 46 -62 52 -21 6 -31 1 -53 -24z m79 -27 c2 -4 1 -14 -3 -21 -7
-11 -14 -10 -35 4 -20 14 -24 21 -15 31 11 13 41 5 53 -14z"/>
<path d="M1500 3059 c0 -7 8 -18 18 -25 16 -13 16 -13 -3 -15 -11 -1 -27 -2
-35 -3 -30 -2 -14 -29 32 -55 50 -28 78 -22 38 9 l-24 18 34 4 c48 4 48 23 -3
52 -49 29 -57 31 -57 15z"/>
<path d="M1441 2956 c-9 -10 -2 -17 29 -31 22 -10 40 -22 40 -26 0 -18 -23
-20 -57 -4 -29 14 -37 15 -44 4 -6 -10 2 -19 29 -31 54 -24 80 -22 94 6 15 34
5 52 -41 75 -32 17 -41 18 -50 7z"/>
<path d="M1396 2852 c-12 -11 -5 -34 15 -51 20 -16 20 -16 -13 -16 -54 0 -49
-29 8 -49 26 -9 54 -16 61 -16 20 0 15 16 -9 29 l-23 12 23 -5 c30 -6 41 20
17 38 -17 12 -17 13 1 12 10 -1 21 3 24 8 6 10 -95 47 -104 38z"/>
<path d="M1356 2704 c-9 -8 -17 -22 -17 -30 -1 -8 -2 -20 -3 -26 -1 -14 56
-38 91 -38 30 0 41 51 19 85 -19 29 -66 34 -90 9z m65 -24 c5 0 9 -9 9 -20 0
-17 -4 -19 -27 -14 -36 9 -37 10 -29 30 4 10 12 14 22 10 9 -3 20 -6 25 -6z"/>
<path d="M1327 2602 c-8 -16 -8 -94 0 -89 4 3 27 2 50 -2 53 -10 60 -5 64 43
5 49 -18 62 -27 17 -8 -38 -27 -41 -22 -4 2 15 -2 28 -9 30 -8 3 -13 -4 -13
-16 0 -11 -5 -23 -11 -27 -8 -5 -10 1 -7 19 5 24 -16 47 -25 29z"/>
<path d="M1407 2443 c-12 -11 -8 -23 8 -23 8 0 15 7 15 15 0 16 -12 20 -23 8z"/>
<path d="M1314 2383 c1 -47 19 -70 28 -35 4 14 15 19 42 20 72 3 73 32 0 32
-32 0 -44 4 -44 15 0 8 -6 15 -13 15 -10 0 -14 -14 -13 -47z"/>
<path d="M1377 2315 c-12 -11 -17 -12 -20 -2 -3 9 -9 8 -22 -5 -14 -13 -15
-22 -8 -45 19 -56 66 -37 72 30 1 5 6 5 11 2 7 -4 6 -13 -1 -27 -16 -30 4 -46
24 -18 33 48 -16 105 -56 65z m-13 -40 c-4 -8 -8 -15 -10 -15 -2 0 -4 7 -4 15
0 8 4 15 10 15 5 0 7 -7 4 -15z"/>
<path d="M4115 3269 c-4 -6 -4 -13 -1 -16 8 -8 36 5 36 17 0 13 -27 13 -35 -1z"/>
<path d="M3950 3230 c0 -13 5 -20 13 -17 6 2 12 10 12 17 0 7 -6 15 -12 18 -8
2 -13 -5 -13 -18z"/>
<path d="M4041 3147 c-6 -8 -8 -17 -4 -20 7 -8 33 11 33 24 0 13 -16 11 -29
-4z"/>
<path d="M4165 3141 c-7 -12 12 -24 25 -16 11 7 4 25 -10 25 -5 0 -11 -4 -15
-9z"/>
<path d="M3876 3125 c-9 -24 5 -41 16 -20 7 11 7 20 0 27 -6 6 -12 3 -16 -7z"/>
<path d="M1237 3286 c-6 -15 1 -26 15 -26 4 0 8 9 8 20 0 23 -15 27 -23 6z"/>
<path d="M842 3268 c6 -18 28 -21 28 -4 0 9 -7 16 -16 16 -9 0 -14 -5 -12 -12z"/>
<path d="M1017 3235 c-8 -19 13 -31 23 -14 9 14 4 29 -10 29 -4 0 -10 -7 -13
-15z"/>
<path d="M916 3152 c-8 -13 11 -35 23 -28 6 4 11 11 11 16 0 11 -28 21 -34 12z"/>
<path d="M792 3139 c2 -6 8 -10 13 -10 5 0 11 4 13 10 2 6 -4 11 -13 11 -9 0
-15 -5 -13 -11z"/>
<path d="M1085 3120 c-8 -13 15 -24 27 -12 6 6 4 11 -6 15 -8 3 -18 2 -21 -3z"/>
<path d="M3080 2918 c0 -7 4 -19 9 -27 11 -17 25 3 17 24 -7 18 -26 20 -26 3z"/>
<path d="M3165 2820 c-7 -12 2 -30 16 -30 5 0 9 9 9 20 0 21 -15 27 -25 10z"/>
<path d="M3090 2715 c0 -8 7 -15 15 -15 8 0 15 4 15 9 0 5 -7 11 -15 15 -9 3
-15 0 -15 -9z"/>
<path d="M3120 2551 c0 -5 7 -11 15 -15 9 -3 15 0 15 9 0 8 -7 15 -15 15 -8 0
-15 -4 -15 -9z"/>
<path d="M3110 2362 c0 -22 25 -48 34 -34 10 16 -1 47 -17 50 -11 2 -17 -3
-17 -16z"/>
<path d="M3175 2371 c-6 -11 20 -33 28 -24 4 3 7 10 7 14 0 11 -29 19 -35 10z"/>
<path d="M3100 2243 c1 -18 18 -35 24 -24 4 6 4 16 1 21 -7 12 -25 13 -25 3z"/>
<path d="M3190 2240 c-13 -9 -13 -11 0 -20 15 -10 25 0 18 20 -2 6 -8 6 -18 0z"/>
<path d="M3150 2165 c-6 -8 -9 -18 -6 -23 2 -4 6 -74 8 -155 3 -189 10 -194
92 -70 28 42 46 79 42 88 -8 21 -104 162 -115 169 -5 3 -14 -1 -21 -9z m82
-198 c-36 -60 -42 -55 -42 34 l0 84 30 -44 c28 -44 29 -45 12 -74z"/>
<path d="M3440 1999 c0 -18 2 -19 15 -9 8 7 15 16 15 21 0 5 -7 9 -15 9 -9 0
-15 -9 -15 -21z"/>
<path d="M3090 1990 c0 -11 4 -20 9 -20 11 0 22 26 14 34 -12 12 -23 5 -23
-14z"/>
<path d="M3346 1932 c-2 -4 -1 -14 4 -21 10 -17 31 -5 23 14 -6 16 -19 20 -27
7z"/>
<path d="M3505 1909 c-4 -6 -5 -13 -2 -16 7 -7 27 6 27 18 0 12 -17 12 -25 -2z"/>
<path d="M3630 1900 c0 -14 26 -23 41 -15 8 6 7 10 -2 16 -19 12 -39 11 -39
-1z"/>
<path d="M2907 1873 c-12 -11 -8 -23 7 -23 8 0 16 7 20 15 5 15 -14 21 -27 8z"/>
<path d="M3052 1867 c-9 -11 -10 -17 -2 -22 15 -9 23 -1 18 21 -3 15 -4 16
-16 1z"/>
<path d="M3424 1850 c-60 -24 -73 -110 -24 -158 25 -26 37 -30 71 -28 74 6
110 70 80 143 -19 46 -74 65 -127 43z m77 -43 c32 -25 30 -76 -5 -99 -34 -23
-86 8 -86 50 0 50 53 79 91 49z"/>
<path d="M3593 1804 c-7 -18 17 -38 30 -25 9 9 -1 41 -14 41 -5 0 -12 -7 -16
-16z"/>
<path d="M3840 1800 c0 -11 7 -20 15 -20 8 0 15 9 15 20 0 11 -7 20 -15 20 -8
0 -15 -9 -15 -20z"/>
<path d="M3243 1795 c-3 -9 -3 -18 0 -21 9 -9 27 6 27 22 0 19 -19 18 -27 -1z"/>
<path d="M4026 1783 c-9 -9 -7 -33 3 -33 12 0 22 28 12 34 -5 3 -11 3 -15 -1z"/>
<path d="M2755 1750 c-8 -13 4 -32 16 -25 12 8 12 35 0 35 -6 0 -13 -4 -16
-10z"/>
<path d="M3694 1704 c3 -9 6 -21 6 -27 0 -8 3 -8 11 0 13 13 5 43 -12 43 -6 0
-8 -7 -5 -16z"/>
<path d="M3337 1647 c-3 -8 -2 -20 3 -27 6 -10 10 -8 19 7 10 19 6 33 -10 33
-4 0 -9 -6 -12 -13z"/>
<path d="M3562 1648 c3 -7 13 -15 22 -16 12 -3 17 1 14 10 -3 7 -13 15 -22 16
-12 3 -17 -1 -14 -10z"/>
<path d="M3845 1630 c-7 -12 2 -30 16 -30 12 0 12 27 0 35 -5 3 -12 1 -16 -5z"/>
<path d="M3455 1599 c-10 -15 1 -23 20 -15 9 3 13 10 10 16 -8 13 -22 13 -30
-1z"/>
<path d="M3550 1496 c0 -22 17 -28 24 -10 9 22 8 24 -9 24 -8 0 -15 -6 -15
-14z"/>
<path d="M3710 1431 c0 -12 26 -32 33 -25 9 10 -4 34 -19 34 -8 0 -14 -4 -14
-9z"/>
<path d="M1864 2917 c-8 -21 2 -35 16 -21 5 5 6 15 0 24 -8 12 -10 12 -16 -3z"/>
<path d="M1777 2796 c-3 -8 1 -20 9 -26 11 -10 14 -9 14 8 0 25 -16 37 -23 18z"/>
<path d="M1860 2711 c0 -18 18 -21 30 -6 10 13 9 15 -9 15 -11 0 -21 -4 -21
-9z"/>
<path d="M1830 2551 c0 -18 18 -21 30 -6 10 13 9 15 -9 15 -11 0 -21 -4 -21
-9z"/>
<path d="M1780 2365 c-10 -13 -9 -15 9 -15 11 0 21 4 21 9 0 18 -18 21 -30 6z"/>
<path d="M1839 2375 c-1 -3 -1 -14 -1 -25 0 -32 1 -33 17 -20 8 7 15 21 15 31
0 16 -28 29 -31 14z"/>
<path d="M1857 2254 c-10 -10 -9 -44 2 -44 13 0 23 32 13 42 -5 5 -11 5 -15 2z"/>
<path d="M1767 2236 c-3 -8 -3 -17 0 -20 9 -9 34 15 27 25 -8 13 -21 11 -27
-5z"/>
<path d="M1764 2092 c-31 -48 -57 -92 -57 -97 0 -16 102 -165 113 -165 15 0
20 32 25 187 7 191 1 197 -81 75z m42 -89 c-2 -43 -5 -80 -5 -83 -1 -6 -51 67
-51 75 0 8 52 85 57 85 2 0 2 -35 -1 -77z"/>
<path d="M1510 2011 c0 -12 26 -32 33 -25 9 10 -4 34 -19 34 -8 0 -14 -4 -14
-9z"/>
<path d="M1887 2013 c-10 -9 -9 -43 2 -43 5 0 11 6 14 13 6 17 -7 40 -16 30z"/>
<path d="M1625 1930 c-7 -12 2 -30 16 -30 5 0 9 9 9 20 0 21 -15 27 -25 10z"/>
<path d="M1470 1906 c0 -8 4 -17 9 -20 10 -7 23 19 14 28 -11 11 -23 6 -23 -8z"/>
<path d="M1303 1903 c-18 -6 -16 -23 1 -23 17 0 30 16 19 23 -5 2 -14 2 -20 0z"/>
<path d="M2020 1871 c0 -10 30 -24 37 -17 3 3 2 9 -2 15 -8 13 -35 15 -35 2z"/>
<path d="M1902 1859 c2 -6 8 -10 13 -10 5 0 11 4 13 10 2 6 -4 11 -13 11 -9 0
-15 -5 -13 -11z"/>
<path d="M1478 1845 c-60 -33 -57 -150 4 -171 39 -13 52 -14 86 -3 78 25 79
151 1 178 -41 14 -58 13 -91 -4z m94 -42 c24 -21 23 -58 -2 -83 -55 -55 -135
24 -83 82 20 22 61 23 85 1z"/>
<path d="M1120 1800 c0 -11 7 -20 15 -20 8 0 15 9 15 20 0 11 -7 20 -15 20 -8
0 -15 -9 -15 -20z"/>
<path d="M1370 1805 c-14 -17 -5 -36 15 -28 16 6 21 43 6 43 -5 0 -14 -7 -21
-15z"/>
<path d="M1720 1803 c0 -5 4 -15 10 -23 11 -18 25 -7 17 15 -6 15 -27 21 -27
8z"/>
<path d="M950 1770 c0 -13 5 -20 13 -17 6 2 12 10 12 17 0 7 -6 15 -12 18 -8
2 -13 -5 -13 -18z"/>
<path d="M2212 1746 c1 -10 8 -17 13 -17 15 1 12 24 -3 29 -9 3 -13 -2 -10
-12z"/>
<path d="M1266 1704 c-11 -27 -7 -37 9 -24 16 14 20 40 6 40 -5 0 -12 -7 -15
-16z"/>
<path d="M1386 1644 c-4 -11 -1 -14 11 -12 9 2 18 9 21 16 6 18 -25 15 -32 -4z"/>
<path d="M1630 1641 c0 -12 6 -21 16 -21 9 0 14 7 12 17 -5 25 -28 28 -28 4z"/>
<path d="M1123 1633 c-16 -6 -17 -33 -3 -33 11 0 26 28 19 34 -2 2 -10 1 -16
-1z"/>
<path d="M1495 1600 c-3 -6 1 -13 10 -16 19 -8 30 0 20 15 -8 14 -22 14 -30 1z"/>
<path d="M1406 1496 c7 -19 38 -22 32 -3 -3 6 -12 13 -21 15 -12 2 -15 -1 -11
-12z"/>
<path d="M1242 1433 c-15 -6 -6 -23 14 -23 8 0 14 7 14 15 0 15 -6 17 -28 8z"/>
<path d="M1928 1410 c-18 -33 -23 -52 -16 -56 6 -4 17 2 25 12 13 18 14 17 8
-8 -8 -31 10 -38 34 -15 11 10 12 8 7 -9 -5 -16 0 -23 20 -33 19 -8 29 -9 34
-1 9 14 38 2 45 -18 7 -23 106 -56 117 -39 5 8 -2 15 -18 21 -22 7 -25 12 -18
35 18 65 -1 88 -23 26 -21 -61 -32 -64 -29 -5 2 33 -2 56 -11 65 -11 12 -20 7
-54 -28 l-41 -42 26 47 c26 46 26 47 5 53 -13 4 -28 0 -40 -11 -20 -18 -20
-18 -13 10 5 19 2 31 -7 37 -21 13 -22 12 -51 -41z"/>
<path d="M2988 1434 c-33 -18 -33 -15 -8 -64 25 -49 15 -51 -29 -6 -44 45 -64
38 -59 -20 2 -24 0 -44 -4 -44 -5 0 -8 7 -8 14 0 12 -6 13 -29 5 -31 -11 -34
-42 -3 -33 13 4 13 3 -2 -6 -14 -10 -21 -9 -34 4 -20 20 -6 50 24 52 34 2 37
4 25 18 -15 18 -61 11 -78 -11 -19 -25 -16 -60 9 -83 26 -24 34 -25 72 -5 15
8 32 13 36 10 10 -6 32 20 24 28 -8 7 34 20 45 13 5 -3 23 0 39 7 25 10 29 16
20 30 -14 26 -3 32 26 14 21 -14 26 -14 36 -2 9 11 7 16 -9 25 -12 6 -21 21
-21 34 0 13 -7 27 -16 30 -21 8 -25 8 -56 -10z m42 -23 c0 -5 -7 -11 -15 -15
-15 -5 -20 5 -8 17 9 10 23 9 23 -2z"/>
<path d="M2215 1340 c-6 -9 3 -99 12 -112 10 -18 31 -5 52 32 12 22 24 40 26
40 3 0 2 -20 -2 -45 -5 -38 -3 -45 11 -45 9 0 16 6 17 13 1 23 10 72 14 75 8
8 28 -45 27 -70 -2 -19 2 -28 13 -28 14 0 19 11 16 36 -1 6 10 21 24 34 14 13
25 27 25 32 0 15 -33 8 -45 -9 -11 -15 -13 -15 -19 4 -5 15 -18 22 -49 27 -38
6 -44 4 -64 -21 -18 -22 -23 -25 -24 -10 -1 9 -3 22 -4 27 -1 6 -3 15 -4 20
-1 13 -18 13 -26 0z"/>
<path d="M2703 1328 c-12 -14 -29 -87 -24 -103 1 -5 -1 -6 -6 -2 -8 8 -9 16
-12 73 -1 19 -6 25 -18 22 -13 -2 -17 -11 -15 -28 l3 -25 -26 28 c-14 15 -30
25 -35 22 -9 -6 -3 -101 7 -117 11 -18 23 -6 23 23 l0 32 20 -25 c15 -19 26
-24 47 -21 15 3 33 11 38 18 16 19 39 23 51 7 6 -8 16 -12 23 -8 8 6 6 18 -10
44 -35 59 -54 76 -66 60z"/>
<path d="M2442 1260 c-26 -54 -27 -60 -10 -60 10 0 18 5 18 10 0 16 42 11 55
-7 7 -9 17 -13 22 -10 13 8 -26 114 -44 121 -7 3 -24 -19 -41 -54z"/>
<path d="M2137 924 c-9 -9 4 -35 14 -28 5 3 9 12 9 20 0 14 -12 19 -23 8z"/>
<path d="M2092 888 c6 -18 28 -21 28 -4 0 9 -7 16 -16 16 -9 0 -14 -5 -12 -12z"/>
<path d="M2026 832 c-2 -4 0 -14 5 -22 8 -13 10 -13 18 0 10 15 6 30 -9 30 -5
0 -11 -4 -14 -8z"/>
<path d="M1940 780 c0 -13 5 -20 13 -17 6 2 12 10 12 17 0 7 -6 15 -12 18 -8
2 -13 -5 -13 -18z"/>
<path d="M2875 890 c-8 -13 4 -32 16 -25 12 8 12 35 0 35 -6 0 -13 -4 -16 -10z"/>
<path d="M2940 820 c0 -11 5 -20 10 -20 6 0 10 9 10 20 0 11 -4 20 -10 20 -5
0 -10 -9 -10 -20z"/>
<path d="M3025 790 c-7 -12 2 -30 16 -30 5 0 9 9 9 20 0 21 -15 27 -25 10z"/>
<path d="M2270 866 c0 -22 17 -28 24 -10 9 22 8 24 -9 24 -8 0 -15 -6 -15 -14z"/>
<path d="M2227 806 c-6 -15 1 -26 15 -26 11 0 10 27 -1 34 -5 3 -11 0 -14 -8z"/>
<path d="M2175 730 c-7 -12 2 -30 16 -30 5 0 9 9 9 20 0 21 -15 27 -25 10z"/>
<path d="M2112 666 c1 -10 8 -17 13 -17 15 1 12 24 -3 29 -9 3 -13 -2 -10 -12z"/>
<path d="M2697 874 c-8 -8 3 -34 14 -34 5 0 9 9 9 20 0 19 -11 26 -23 14z"/>
<path d="M2742 796 c1 -10 8 -17 13 -17 15 1 12 24 -3 29 -9 3 -13 -2 -10 -12z"/>
<path d="M2797 723 c-12 -11 -8 -23 8 -23 8 0 15 7 15 15 0 16 -12 20 -23 8z"/>
<path d="M2856 672 c-2 -4 0 -14 5 -22 8 -13 10 -13 18 0 10 15 6 30 -9 30 -5
0 -11 -4 -14 -8z"/>
<path d="M2375 770 c-7 -12 2 -30 16 -30 12 0 12 27 0 35 -5 3 -12 1 -16 -5z"/>
<path d="M2330 690 c0 -11 5 -20 10 -20 6 0 10 9 10 20 0 11 -4 20 -10 20 -5
0 -10 -9 -10 -20z"/>
<path d="M2276 623 c-11 -11 -6 -23 9 -23 8 0 15 4 15 9 0 13 -16 22 -24 14z"/>
<path d="M2216 563 c-11 -11 -6 -23 9 -23 8 0 15 4 15 9 0 13 -16 22 -24 14z"/>
<path d="M2595 760 c-8 -13 4 -32 16 -25 12 8 12 35 0 35 -6 0 -13 -4 -16 -10z"/>
<path d="M2637 696 c-4 -10 -1 -19 9 -23 21 -8 26 1 11 22 -13 16 -14 16 -20
1z"/>
<path d="M2690 616 c0 -17 14 -29 23 -20 8 8 -3 34 -14 34 -5 0 -9 -6 -9 -14z"/>
<path d="M2757 563 c-12 -11 -8 -23 8 -23 8 0 15 7 15 15 0 16 -12 20 -23 8z"/>
<path d="M2452 629 c2 -6 8 -10 13 -10 5 0 11 4 13 10 2 6 -4 11 -13 11 -9 0
-15 -5 -13 -11z"/>
<path d="M2571 546 c-8 -10 -9 -16 -1 -21 5 -3 13 1 16 10 9 22 -1 29 -15 11z"/>
<path d="M2466 503 c-11 -11 -6 -23 9 -23 8 0 15 4 15 9 0 13 -16 22 -24 14z"/>
<path d="M2332 489 c2 -6 8 -10 13 -10 5 0 11 4 13 10 2 6 -4 11 -13 11 -9 0
-15 -5 -13 -11z"/>
<path d="M2575 469 c-10 -15 3 -25 16 -12 7 7 7 13 1 17 -6 3 -14 1 -17 -5z"/>
<path d="M2397 434 c-8 -8 1 -24 14 -24 5 0 9 7 9 15 0 15 -12 20 -23 9z"/>
<path d="M2500 361 c0 -17 18 -21 24 -6 3 9 0 15 -9 15 -8 0 -15 -4 -15 -9z"/>
</g>
</svg>
